<svg width="101" height="35" viewBox="0 0 101 35" fill="none" xmlns="http://www.w3.org/2000/svg">
<path d="M3.09033 24V10H6.97033L14.0903 18.52H12.2903V10H16.8903V24H13.0103L5.89033 15.48H7.69033V24H3.09033ZM19.1646 24V10H23.8846V24H19.1646ZM33.3967 24.32C32.2767 24.32 31.2367 24.1467 30.2767 23.8C29.3301 23.44 28.5034 22.9333 27.7967 22.28C27.1034 21.6267 26.5634 20.8533 26.1767 19.96C25.7901 19.0667 25.5967 18.08 25.5967 17C25.5967 15.92 25.7901 14.9333 26.1767 14.04C26.5634 13.1467 27.1034 12.3733 27.7967 11.72C28.5034 11.0667 29.3301 10.5667 30.2767 10.22C31.2367 9.86 32.2767 9.68 33.3967 9.68C34.7701 9.68 35.9834 9.92 37.0367 10.4C38.1034 10.88 38.9834 11.5733 39.6767 12.48L36.6967 15.14C36.2834 14.62 35.8234 14.22 35.3167 13.94C34.8234 13.6467 34.2634 13.5 33.6367 13.5C33.1434 13.5 32.6967 13.58 32.2967 13.74C31.8967 13.9 31.5501 14.1333 31.2567 14.44C30.9767 14.7467 30.7567 15.12 30.5967 15.56C30.4367 15.9867 30.3567 16.4667 30.3567 17C30.3567 17.5333 30.4367 18.02 30.5967 18.46C30.7567 18.8867 30.9767 19.2533 31.2567 19.56C31.5501 19.8667 31.8967 20.1 32.2967 20.26C32.6967 20.42 33.1434 20.5 33.6367 20.5C34.2634 20.5 34.8234 20.36 35.3167 20.08C35.8234 19.7867 36.2834 19.38 36.6967 18.86L39.6767 21.52C38.9834 22.4133 38.1034 23.1067 37.0367 23.6C35.9834 24.08 34.7701 24.32 33.3967 24.32ZM45.2596 21L44.9996 15.82L50.2796 10H55.4196L49.4996 16.52L46.8796 19.2L45.2596 21ZM41.0396 24V10H45.6796V24H41.0396ZM50.2396 24L46.1196 18.56L49.1796 15.32L55.6996 24H50.2396Z" fill="white"/>
<rect x="62.2858" width="38" height="35" rx="5" fill="#0243E7"/>
<rect x="62.2858" width="13" height="35" fill="#0243E7"/>
<path d="M66.4349 24V10H71.1549V20.34H77.4749V24H66.4349ZM80.9724 24V17.86L82.0524 20.68L75.6924 10H80.6724L84.9724 17.3H82.0724L86.4124 10H90.9724L84.6524 20.68L85.6924 17.86V24H80.9724ZM92.6709 24.2C91.9242 24.2 91.2975 23.96 90.7909 23.48C90.2842 22.9867 90.0309 22.36 90.0309 21.6C90.0309 20.8267 90.2842 20.2067 90.7909 19.74C91.2975 19.2733 91.9242 19.04 92.6709 19.04C93.4175 19.04 94.0442 19.2733 94.5509 19.74C95.0575 20.2067 95.3109 20.8267 95.3109 21.6C95.3109 22.36 95.0575 22.9867 94.5509 23.48C94.0442 23.96 93.4175 24.2 92.6709 24.2Z" fill="white"/>
</svg>
