<svg width="100" height="35" viewBox="0 0 100 35" fill="none" xmlns="http://www.w3.org/2000/svg">
<path d="M1.01316 24.1471L3.81316 10.1471H7.07316L12.7332 19.5071L11.3732 19.4671L13.2332 10.1471H17.1132L14.3132 24.1471H11.0532L5.41316 14.7871L6.75316 14.8271L4.89316 24.1471H1.01316ZM17.1264 24.1471L19.9264 10.1471H23.8864L21.0864 24.1471H17.1264ZM31.5438 24.4271C30.1171 24.4271 28.8705 24.1671 27.8038 23.6471C26.7505 23.1271 25.9371 22.4071 25.3638 21.4871C24.7905 20.5537 24.5038 19.4804 24.5038 18.2671C24.5038 17.0537 24.7171 15.9337 25.1438 14.9071C25.5705 13.8804 26.1705 12.9937 26.9438 12.2471C27.7171 11.4871 28.6371 10.9004 29.7038 10.4871C30.7838 10.0737 31.9771 9.86706 33.2838 9.86706C34.5771 9.86706 35.7238 10.0937 36.7238 10.5471C37.7238 11.0004 38.4705 11.6537 38.9638 12.5071L36.1038 14.7871C35.7838 14.2537 35.3638 13.8471 34.8438 13.5671C34.3371 13.2871 33.7305 13.1471 33.0238 13.1471C32.3438 13.1471 31.7238 13.2671 31.1638 13.5071C30.6171 13.7471 30.1438 14.0871 29.7438 14.5271C29.3438 14.9671 29.0371 15.4871 28.8238 16.0871C28.6105 16.6737 28.5038 17.3137 28.5038 18.0071C28.5038 18.6337 28.6371 19.1871 28.9038 19.6671C29.1838 20.1337 29.5771 20.5004 30.0838 20.7671C30.6038 21.0204 31.2171 21.1471 31.9238 21.1471C32.5505 21.1471 33.1505 21.0204 33.7238 20.7671C34.3105 20.5137 34.8505 20.1004 35.3438 19.5271L37.6838 21.8271C36.8971 22.7737 35.9905 23.4471 34.9638 23.8471C33.9371 24.2337 32.7971 24.4271 31.5438 24.4271ZM42.8494 21.1071L43.4294 16.5871L50.5494 10.1471H55.2094L47.9094 16.6671L45.2694 18.9271L42.8494 21.1071ZM38.6694 24.1471L41.4694 10.1471H45.3694L42.5694 24.1471H38.6694ZM48.2894 24.1471L44.5894 18.3671L47.4694 15.7071L52.7094 24.1471H48.2894Z" fill="white"/>
<rect x="59.1837" width="40.8163" height="35" rx="5" fill="#0243E7"/>
<path d="M65.5268 24.5V10.5H70.2468V20.84H76.5668V24.5H65.5268ZM80.0643 24.5V18.36L81.1443 21.18L74.7843 10.5H79.7643L84.0643 17.8H81.1643L85.5043 10.5H90.0643L83.7443 21.18L84.7843 18.36V24.5H80.0643ZM91.7628 24.7C91.0161 24.7 90.3894 24.46 89.8828 23.98C89.3761 23.4867 89.1228 22.86 89.1228 22.1C89.1228 21.3267 89.3761 20.7067 89.8828 20.24C90.3894 19.7733 91.0161 19.54 91.7628 19.54C92.5094 19.54 93.1361 19.7733 93.6428 20.24C94.1494 20.7067 94.4028 21.3267 94.4028 22.1C94.4028 22.86 94.1494 23.4867 93.6428 23.98C93.1361 24.46 92.5094 24.7 91.7628 24.7Z" fill="white"/>
</svg>
